<svg width="1440" height="351" viewBox="0 0 1440 351" fill="none" xmlns="http://www.w3.org/2000/svg" preserveAspectRatio="none">
<path d="M-11.0893 279V7.9133H91.484C113.464 7.9133 132.758 11.8209 149.365 19.636C166.216 27.2068 180.137 37.4642 191.127 50.408C202.117 63.3517 210.42 77.883 216.037 94.0016C221.654 110.12 224.463 126.605 224.463 143.457C224.463 160.308 221.654 176.793 216.037 192.912C210.42 209.03 202.117 223.562 191.127 236.505C180.137 249.449 166.216 259.829 149.365 267.644C132.758 275.215 113.464 279 91.484 279H-11.0893ZM88.9197 57.3683H45.326V228.812H88.9197C106.748 228.812 121.401 224.661 132.88 216.357C144.602 208.053 153.272 197.308 158.889 184.12C164.751 170.932 167.681 157.255 167.681 143.09C167.681 128.925 164.751 115.371 158.889 102.427C153.272 89.2393 144.602 78.4935 132.88 70.19C121.401 61.6422 106.748 57.3683 88.9197 57.3683ZM357.067 282.663C339.972 282.663 325.196 279.855 312.741 274.238C300.285 268.376 290.028 260.683 281.969 251.159C273.909 241.39 267.804 230.522 263.652 218.555C259.745 206.588 257.791 194.255 257.791 181.555C257.791 169.344 259.622 157.377 263.286 145.655C267.193 133.688 273.055 122.82 280.87 113.051C288.929 103.282 299.064 95.5891 311.275 89.972C323.731 84.1106 338.384 81.18 355.235 81.18C373.064 81.18 388.816 85.0875 402.492 92.9026C416.413 100.718 427.281 112.318 435.096 127.704C442.911 142.846 446.819 161.285 446.819 183.021V196.575H313.84C314.572 208.298 318.602 218.433 325.929 226.981C333.5 235.528 343.879 239.802 357.067 239.802C364.638 239.802 370.744 238.703 375.384 236.505C380.268 234.063 384.054 231.377 386.74 228.446C389.427 225.271 391.258 222.463 392.235 220.02C393.212 217.578 393.7 216.357 393.7 216.357H444.987C444.987 216.357 444.377 218.677 443.155 223.317C442.179 227.713 439.981 233.208 436.561 239.802C433.142 246.396 428.136 252.99 421.542 259.584C415.192 266.178 406.766 271.673 396.265 276.069C385.763 280.465 372.697 282.663 357.067 282.663ZM313.84 162.872H393.334C392.601 149.44 388.572 139.427 381.245 132.833C373.918 126.239 364.882 122.942 354.136 122.942C343.391 122.942 334.232 126.483 326.661 133.566C319.091 140.404 314.817 150.173 313.84 162.872ZM535.397 279L464.328 84.8433H520.011L565.436 216.357L609.03 84.8433H665.079L593.644 279H535.397ZM781.713 282.663C764.618 282.663 749.842 279.855 737.387 274.238C724.932 268.376 714.674 260.683 706.615 251.159C698.556 241.39 692.45 230.522 688.298 218.555C684.391 206.588 682.437 194.255 682.437 181.555C682.437 169.344 684.269 157.377 687.932 145.655C691.84 133.688 697.701 122.82 705.516 113.051C713.575 103.282 723.711 95.5891 735.922 89.972C748.377 84.1106 763.03 81.18 779.882 81.18C797.71 81.18 813.462 85.0875 827.139 92.9026C841.059 100.718 851.927 112.318 859.742 127.704C867.558 142.846 871.465 161.285 871.465 183.021V196.575H738.486C739.219 208.298 743.248 218.433 750.575 226.981C758.146 235.528 768.525 239.802 781.713 239.802C789.284 239.802 795.39 238.703 800.03 236.505C804.914 234.063 808.7 231.377 811.386 228.446C814.073 225.271 815.904 222.463 816.881 220.02C817.858 217.578 818.347 216.357 818.347 216.357H869.633C869.633 216.357 869.023 218.677 867.802 223.317C866.825 227.713 864.627 233.208 861.208 239.802C857.789 246.396 852.782 252.99 846.188 259.584C839.838 266.178 831.413 271.673 820.911 276.069C810.409 280.465 797.344 282.663 781.713 282.663ZM738.486 162.872H817.98C817.248 149.44 813.218 139.427 805.891 132.833C798.565 126.239 789.528 122.942 778.783 122.942C768.037 122.942 758.879 126.483 751.308 133.566C743.737 140.404 739.463 150.173 738.486 162.872ZM912.972 279V0.586617H968.655V279H912.972ZM1111.97 282.663C1090.24 282.663 1071.8 278.023 1056.66 268.743C1041.52 259.218 1029.92 246.885 1021.86 231.743C1014.04 216.357 1010.13 199.75 1010.13 181.922C1010.13 164.093 1014.04 147.608 1021.86 132.467C1029.92 117.081 1041.52 104.747 1056.66 95.467C1071.8 85.9423 1090.24 81.18 1111.97 81.18C1133.71 81.18 1152.15 85.9423 1167.29 95.467C1182.43 104.747 1193.91 117.081 1201.73 132.467C1209.79 147.608 1213.82 164.093 1213.82 181.922C1213.82 199.75 1209.79 216.357 1201.73 231.743C1193.91 246.885 1182.43 259.218 1167.29 268.743C1152.15 278.023 1133.71 282.663 1111.97 282.663ZM1111.97 237.238C1121.74 237.238 1129.92 234.674 1136.52 229.545C1143.36 224.416 1148.61 217.7 1152.27 209.397C1155.93 200.849 1157.77 191.691 1157.77 181.922C1157.77 171.909 1155.93 162.75 1152.27 154.447C1148.61 146.143 1143.36 139.427 1136.52 134.298C1129.92 129.17 1121.74 126.605 1111.97 126.605C1102.21 126.605 1093.9 129.17 1087.06 134.298C1080.23 139.427 1074.97 146.143 1071.31 154.447C1067.89 162.75 1066.18 171.909 1066.18 181.922C1066.18 191.691 1067.89 200.849 1071.31 209.397C1074.97 217.7 1080.23 224.416 1087.06 229.545C1093.9 234.674 1102.21 237.238 1111.97 237.238ZM1255.34 350.435V84.8433H1311.02V109.754H1313.58C1314.8 108.044 1317.49 104.87 1321.64 100.229C1326.04 95.5891 1332.27 91.3152 1340.33 87.4076C1348.39 83.2559 1358.64 81.18 1371.1 81.18C1385.51 81.18 1397.96 84.1106 1408.46 89.972C1419.21 95.5891 1428.12 103.282 1435.21 113.051C1442.29 122.576 1447.54 133.321 1450.96 145.288C1454.62 157.255 1456.45 169.466 1456.45 181.922C1456.45 194.377 1454.62 206.588 1450.96 218.555C1447.54 230.522 1442.29 241.39 1435.21 251.159C1428.12 260.683 1419.21 268.376 1408.46 274.238C1397.96 279.855 1385.51 282.663 1371.1 282.663C1358.64 282.663 1348.39 280.71 1340.33 276.802C1332.27 272.65 1326.04 268.254 1321.64 263.614C1317.49 258.974 1314.8 255.799 1313.58 254.089H1311.02V350.435H1255.34ZM1309.92 181.922C1309.92 190.958 1311.51 199.75 1314.68 208.298C1318.1 216.845 1323.11 223.928 1329.7 229.545C1336.54 234.918 1344.97 237.604 1354.98 237.604C1364.99 237.604 1373.3 234.918 1379.89 229.545C1386.73 223.928 1391.73 216.845 1394.91 208.298C1398.33 199.75 1400.04 190.958 1400.04 181.922C1400.04 172.885 1398.33 164.093 1394.91 155.546C1391.73 146.998 1386.73 140.038 1379.89 134.665C1373.3 129.048 1364.99 126.239 1354.98 126.239C1344.97 126.239 1336.54 129.048 1329.7 134.665C1323.11 140.038 1318.1 146.998 1314.68 155.546C1311.51 164.093 1309.92 172.885 1309.92 181.922Z" fill="#F5F8FF"/>
</svg>
