<svg width="36" height="38" viewBox="0 0 36 38" fill="current" xmlns="http://www.w3.org/2000/svg">
<path d="M12.9588 36.5752C13.201 37.4038 14.1998 37.7308 14.8852 37.2059L23.2576 30.7941C23.482 30.6222 23.7588 30.533 24.0413 30.5414L34.5822 30.8552C35.4451 30.8808 36.0648 30.032 35.7774 29.2179L32.2665 19.2739C32.1725 19.0074 32.1731 18.7166 32.2684 18.4506L35.8241 8.52252C36.1152 7.70975 35.4994 6.85812 34.6363 6.87991L24.0941 7.14602C23.8116 7.15316 23.5352 7.06268 23.3116 6.88983L14.9683 0.44021C14.2852 -0.08779 13.285 0.234713 13.039 1.06225L10.0344 11.1707C9.95386 11.4416 9.78241 11.6765 9.54893 11.8357L0.836738 17.7777C0.123511 18.2642 0.121139 19.3151 0.83216 19.8048L9.51742 25.786C9.75018 25.9463 9.92057 26.182 9.99987 26.4532L12.9588 36.5752Z" fill="current"/>
</svg>
